<?xml version="1.0" encoding="UTF-8" standalone="no"?>
<!-- Created with Inkscape (http://www.inkscape.org/) -->

<svg
   xmlns:dc="http://purl.org/dc/elements/1.1/"
   xmlns:cc="http://creativecommons.org/ns#"
   xmlns:rdf="http://www.w3.org/1999/02/22-rdf-syntax-ns#"
   xmlns:svg="http://www.w3.org/2000/svg"
   xmlns="http://www.w3.org/2000/svg"
   xmlns:sodipodi="http://sodipodi.sourceforge.net/DTD/sodipodi-0.dtd"
   xmlns:inkscape="http://www.inkscape.org/namespaces/inkscape"
   width="48"
   height="48"
   viewBox="0 0 48.000001 48"
   id="svg2"
   version="1.1"
   inkscape:version="0.91 r13725"
   sodipodi:docname="app-icon.svg">
  <defs
     id="defs4">
    <filter
       inkscape:collect="always"
       style="color-interpolation-filters:sRGB"
       id="filter4481"
       x="-0.044445875"
       width="1.0888917"
       y="-0.072895074"
       height="1.1457901">
      <feGaussianBlur
         inkscape:collect="always"
         stdDeviation="0.81352323"
         id="feGaussianBlur4483" />
    </filter>
  </defs>
  <sodipodi:namedview
     id="base"
     pagecolor="#ffffff"
     bordercolor="#666666"
     borderopacity="1.0"
     inkscape:pageopacity="0.0"
     inkscape:pageshadow="2"
     inkscape:zoom="4"
     inkscape:cx="20.434768"
     inkscape:cy="17.477187"
     inkscape:document-units="px"
     inkscape:current-layer="layer1"
     showgrid="false"
     units="px"
     inkscape:object-nodes="true"
     inkscape:snap-bbox="true"
     inkscape:object-paths="false"
     showborder="false">
    <inkscape:grid
       type="xygrid"
       id="grid4146" />
  </sodipodi:namedview>
  <metadata
     id="metadata7">
    <rdf:RDF>
      <cc:Work
         rdf:about="">
        <dc:format>image/svg+xml</dc:format>
        <dc:type
           rdf:resource="http://purl.org/dc/dcmitype/StillImage" />
        <dc:title></dc:title>
      </cc:Work>
    </rdf:RDF>
  </metadata>
  <g
     inkscape:groupmode="layer"
     id="layer2"
     inkscape:label="Backdrop"
     transform="translate(0,-80)">
    <g
       id="g4151"
       style="font-style:normal;font-variant:normal;font-weight:300;font-stretch:normal;font-size:47.42554855px;line-height:582.00001717%;font-family:'Merriweather Light';-inkscape-font-specification:'Merriweather Light, Light';text-align:center;letter-spacing:0px;word-spacing:0px;writing-mode:lr-tb;text-anchor:middle;display:inline;opacity:0.2;fill:#000000;fill-opacity:1;stroke:none;stroke-width:1px;stroke-linecap:butt;stroke-linejoin:miter;stroke-opacity:1;filter:url(#filter4481)"
       transform="matrix(1.0016199,0,0,0.99838272,0,-923.63024)">
      <path
         style="fill:#000000"
         sodipodi:nodetypes="ccccccccscssccccccsscsccccccsscccccc"
         inkscape:connector-curvature="0"
         id="path4153"
         d="m 2.6451619,1042.3699 3.3451344,-0.3705 0,-20.8603 -3.9935306,-0.8337 0,-1.9533 6.1597636,-0.7411 0.7056668,0.7411 -0.046314,3.2882 c 2.8237999,-2.2953 6.4126639,-3.9589 9.9928699,-4.0987 2.838215,-0.1109 4.933286,1.1239 6.037663,3.5198 2.773659,-2.056 6.473762,-3.4342 9.8712,-3.5198 6.756182,-0.1702 7.214459,5.6902 7.214459,10.8919 l 0,13.5659 3.993532,0.3705 0,1.9493 -10.605908,0 0,-1.9493 3.617228,-0.3705 0,-13.427 c 0,-4.4082 -1.423757,-8.3278 -6.095028,-8.2902 -2.60263,0.021 -5.268118,1.351 -7.370244,2.7244 0.396824,1.9182 0.512564,3.7065 0.486297,5.4964 l 0,13.4964 3.966164,0.3705 0,1.9493 -10.837479,0 0,-1.9493 3.876167,-0.3705 0,-13.5196 c 0,-4.2024 -1.1166,-8.2079 -5.682413,-8.1512 -2.938052,0.036 -5.996076,1.4889 -8.2949455,3.1262 l 0,18.5446 3.8719575,0.3705 0,1.9493 -10.2122401,0 z" />
    </g>
  </g>
  <g
     inkscape:label="Foreground"
     inkscape:groupmode="layer"
     id="layer1"
     transform="translate(0,-1004.3622)"
     style="display:inline;opacity:1">
    <g
       transform="matrix(1.0016199,0,0,0.99838272,0,-0.2680434)"
       style="font-style:normal;font-variant:normal;font-weight:300;font-stretch:normal;font-size:47.42554855px;line-height:582.00001717%;font-family:'Merriweather Light';-inkscape-font-specification:'Merriweather Light, Light';text-align:center;letter-spacing:0px;word-spacing:0px;writing-mode:lr-tb;text-anchor:middle;fill:#ffffff;fill-opacity:1;stroke:none;stroke-width:1px;stroke-linecap:butt;stroke-linejoin:miter;stroke-opacity:1"
       id="text3336">
      <path
         d="m 2.6451619,1042.3699 3.3451344,-0.3705 0,-20.8603 -3.9935306,-0.8337 0,-1.9533 6.1597636,-0.7411 0.7056668,0.7411 -0.046314,3.2882 c 2.8237999,-2.2953 6.4126639,-3.9589 9.9928699,-4.0987 2.838215,-0.1109 4.933286,1.1239 6.037663,3.5198 2.773659,-2.056 6.473762,-3.4342 9.8712,-3.5198 6.756182,-0.1702 7.214459,5.6902 7.214459,10.8919 l 0,13.5659 3.993532,0.3705 0,1.9493 -10.605908,0 0,-1.9493 3.617228,-0.3705 0,-13.427 c 0,-4.4082 -1.423757,-8.3278 -6.095028,-8.2902 -2.60263,0.021 -5.268118,1.351 -7.370244,2.7244 0.396824,1.9182 0.512564,3.7065 0.486297,5.4964 l 0,13.4964 3.966164,0.3705 0,1.9493 -10.837479,0 0,-1.9493 3.876167,-0.3705 0,-13.5196 c 0,-4.2024 -1.1166,-8.2079 -5.682413,-8.1512 -2.938052,0.036 -5.996076,1.4889 -8.2949455,3.1262 l 0,18.5446 3.8719575,0.3705 0,1.9493 -10.2122401,0 z"
         id="path4149"
         inkscape:connector-curvature="0"
         sodipodi:nodetypes="ccccccccscssccccccsscsccccccsscccccc"
         style="fill:#ffffff" />
    </g>
  </g>
</svg>
